<svg width="14" height="14" viewBox="0 0 14 14" fill="none" xmlns="http://www.w3.org/2000/svg">
<path fill-rule="evenodd" clip-rule="evenodd" d="M10.8977 3.89781C11.1174 3.67814 11.1174 3.32198 10.8977 3.10231C10.6781 2.88264 10.3219 2.88264 10.1023 3.10231L7 6.20457L3.89775 3.10231C3.67808 2.88264 3.32192 2.88264 3.10225 3.10231C2.88258 3.32198 2.88258 3.67814 3.10225 3.89781L6.2045 7.00006L3.10225 10.1023C2.88258 10.322 2.88258 10.6781 3.10225 10.8978C3.32192 11.1175 3.67808 11.1175 3.89775 10.8978L7 7.79556L10.1023 10.8978C10.3219 11.1175 10.6781 11.1175 10.8977 10.8978C11.1174 10.6781 11.1174 10.322 10.8977 10.1023L7.79549 7.00006L10.8977 3.89781Z" fill="white"/>
</svg>
