<svg width="43" height="43" viewBox="0 0 43 43" fill="none" xmlns="http://www.w3.org/2000/svg">
<g clip-path="url(#clip0_16_15)">
<g filter="url(#filter0_i_16_15)">
<path d="M36.3846 0H6.61538C2.96181 0 0 2.96181 0 6.61538V36.3846C0 40.0382 2.96181 43 6.61538 43H36.3846C40.0382 43 43 40.0382 43 36.3846V6.61538C43 2.96181 40.0382 0 36.3846 0Z" fill="#F994DF"/>
</g>
<g clip-path="url(#clip1_16_15)">
<g filter="url(#filter1_i_16_15)">
<path d="M38.0697 -1.62265H4.93034C0.863147 -1.62265 -2.43396 1.67446 -2.43396 5.74164V38.881C-2.43396 42.9482 0.863147 46.2453 4.93034 46.2453H38.0697C42.1369 46.2453 45.434 42.9482 45.434 38.881V5.74164C45.434 1.67446 42.1369 -1.62265 38.0697 -1.62265Z" fill="#F994DF"/>
</g>
<path fill-rule="evenodd" clip-rule="evenodd" d="M-1.82031 27.3749C-1.82031 26.8674 -1.20557 26.6147 -0.848637 26.9754C0.123045 27.9573 2.0664 29.9211 4.00976 30.2484C5.95313 30.5757 7.89645 29.2664 9.83982 30.903C11.7832 32.5395 13.7265 37.1217 15.6699 38.4309C17.6133 39.7401 19.5566 37.7763 21.5 37.7763C23.4433 37.7763 25.3867 39.7401 27.33 38.7582C29.2734 37.7763 31.2167 33.8487 33.1601 33.1941C35.1035 32.5395 37.0468 35.1579 38.9902 35.8125C40.9335 36.4671 42.8769 35.1579 43.8486 34.5033C44.2626 34.2243 44.8202 34.5211 44.8202 35.0203V39.2889C44.8202 39.4259 44.8105 39.5627 44.7911 39.6983L44.7738 39.82C44.4483 42.0982 42.6867 44.5634 40.501 45.2839C40.0301 45.4391 39.526 45.5646 38.9902 45.6316C37.0468 45.6316 35.1035 45.6316 33.1601 45.6316C31.2167 45.6316 29.2734 45.6316 27.33 45.6316C25.3867 45.6316 23.4433 45.6316 21.5 45.6316C19.5566 45.6316 17.6133 45.6316 15.6699 45.6316C13.7265 45.6316 11.7832 45.6316 9.83982 45.6316C8.11529 45.6316 6.39069 45.6316 4.66616 45.6316C4.23019 45.6316 3.54684 45.5155 3.12451 45.4074C0.519502 44.7405 -1.45692 42.4018 -1.79044 39.7336L-1.82031 39.4947V27.3749Z" fill="white"/>
<path d="M12.3928 17.279H12.3806C13.3134 19.6847 9.21391 19.8443 9.21391 19.8443C9.21391 19.8443 8.35474 19.8934 7.58149 19.4515C6.72232 19.8075 5.80178 19.8443 5.80178 19.8443C5.80178 19.8443 3.44521 19.9793 3.0279 17.8068C2.96653 17.5245 2.88061 17.2668 2.7456 17.0213C2.32829 16.248 1.62868 15.573 1.92325 14.3088C2.00917 13.9528 2.4633 13.9774 2.4633 13.9774H4.40257C4.40257 13.9774 4.8076 13.9774 4.69714 14.3947C4.41484 15.4871 4.8567 16.1621 5.33538 16.7881C6.18227 17.905 5.50721 18.4328 5.70359 18.4328C5.89997 18.4328 6.44002 18.0277 6.08408 16.9599C5.98589 16.6776 5.76496 16.4567 5.61768 16.1867C5.3231 15.6957 5.11445 15.1311 5.28628 14.3456C5.3722 13.9528 5.80178 13.9774 5.80178 13.9774H7.82696C7.82696 13.9774 8.25655 13.9651 8.12154 14.3579C8.04789 14.5911 8.02335 14.7997 8.02335 15.0084C8.02335 15.5607 8.232 16.0026 8.47748 16.4076C8.56339 16.5426 8.64931 16.6654 8.7475 16.7881C9.60667 17.9296 8.89479 18.4328 9.10344 18.4328C9.28755 18.4328 9.85215 18.0277 9.49621 16.9599C9.39802 16.6776 9.17709 16.4567 9.0298 16.1867C8.7475 15.6957 8.52657 15.1434 8.69841 14.3701C8.78432 13.9774 9.32437 13.9774 9.32437 13.9774H11.1532C11.1532 13.9774 11.6073 13.9897 11.4968 14.4438C11.2023 15.7325 11.9755 16.4199 12.3928 17.279ZM18.7596 15.2539C18.9437 16.8249 20.6497 17.3772 19.5696 19.4883L19.5574 19.5129C19.361 19.8688 18.9559 19.8443 18.9559 19.8443H18.6737H16.943C16.943 19.8443 16.5626 19.8197 16.6239 19.5374C16.4644 19.7215 16.268 19.832 16.0348 19.8443H14.0341C14.0341 19.8443 12.8681 19.8075 13.2241 18.8624C13.3836 18.4696 13.4573 18.1259 13.3591 17.635C13.3468 17.5736 13.2854 17.4018 13.2118 17.2177C13.1136 16.9722 13.175 16.604 13.9605 16.3708C15.3965 15.978 16.2557 16.3831 16.6239 16.6899C16.6239 16.6776 16.6362 16.6776 16.6362 16.6776C16.403 15.8062 15.6911 15.6221 14.5496 15.6957C14.1692 15.7203 13.5555 16.0026 13.1259 16.1499C12.549 16.3585 12.3772 15.7325 12.3526 15.6589C12.2053 15.2907 12.2053 15.0207 12.2544 14.6156C12.3526 13.9528 12.8927 13.9774 12.8927 13.9774H18.2318C18.2318 13.9774 18.87 14.0019 18.7718 14.6402C18.7473 14.8611 18.735 15.0575 18.7596 15.2539ZM17.1026 18.3837C17.1394 18.1259 17.1394 17.905 17.0903 17.6841H16.133C15.4211 17.6595 15.3106 18.4082 16.1698 18.3837H17.1026ZM26.155 15.2539C26.3391 16.8249 28.0452 17.3772 26.9651 19.4883L26.9528 19.5129C26.7565 19.8688 26.3514 19.8443 26.3514 19.8443H26.0691H24.3385C24.3385 19.8443 23.958 19.8197 24.0194 19.5374C23.8598 19.7215 23.6635 19.832 23.4303 19.8443H21.4296C21.4296 19.8443 20.2636 19.8075 20.6195 18.8624C20.7791 18.4696 20.8527 18.1259 20.7546 17.635C20.7423 17.5736 20.6809 17.4018 20.6073 17.2177C20.5091 16.9722 20.5704 16.604 21.356 16.3708C22.792 15.978 23.6512 16.3831 24.0194 16.6899C24.0194 16.6776 24.0317 16.6776 24.0317 16.6776C23.7985 15.8062 23.0866 15.6221 21.9451 15.6957C21.5646 15.7203 20.9509 16.0026 20.5214 16.1499C19.9445 16.3585 19.7727 15.7325 19.7481 15.6589C19.6008 15.2907 19.6008 15.0207 19.6499 14.6156C19.7481 13.9528 20.2882 13.9774 20.2882 13.9774H25.6273C25.6273 13.9774 26.2655 14.0019 26.1673 14.6402C26.1428 14.8611 26.1305 15.0575 26.155 15.2539ZM24.4981 18.3837C24.5349 18.1259 24.5349 17.905 24.4858 17.6841H23.5284C22.8166 17.6595 22.7061 18.4082 23.5653 18.3837H24.4981ZM34.4956 17.279C35.1093 19.5865 31.3044 19.8443 31.3044 19.8443C31.3044 19.8443 28.6042 19.9793 28.1868 17.8068C28.1255 17.5245 28.0396 17.2668 27.9046 17.0213C27.4872 16.2358 26.7876 15.5607 27.0945 14.2965C27.1681 13.9528 27.5118 13.9651 27.5118 13.9651H29.7088C29.7088 13.9651 30.0034 13.9651 29.9052 14.3211C29.5615 15.4502 30.0034 16.1499 30.4943 16.7881C31.5744 18.2241 30.9362 18.4328 31.1326 18.4328C31.3289 18.4328 31.9549 18.0277 31.599 16.9599C31.5131 16.6776 31.2921 16.4567 31.1326 16.1867C30.838 15.6834 30.6293 15.1066 30.8257 14.2842C30.8994 13.9774 31.2062 13.9774 31.2062 13.9774H33.2928C33.2928 13.9774 33.7346 13.9897 33.6487 14.3088C33.2559 15.6957 34.0783 16.3953 34.4956 17.279ZM41.8212 17.9173C41.8703 18.1505 41.8948 18.261 41.8457 18.5678C41.7966 18.8378 41.5389 19.8443 40.1028 19.8443H36.1507C35.9666 19.8443 35.0215 19.8443 35.3038 18.4328C35.537 17.279 34.7023 16.6654 34.3341 15.7448C34.0027 14.947 34.7024 13.9651 36.2857 13.9651H39.0841C40.4833 13.9651 40.6797 14.9593 40.7043 15.2539C40.7411 15.5362 40.8147 15.7571 40.8638 15.8798C40.8884 15.9412 40.9497 16.0394 40.962 16.1499H40.9743C40.9865 16.8249 40.1519 17.0458 39.5751 17.0949C39.5751 17.0949 38.1513 17.2299 38.0899 17.6104C38.0654 17.7945 38.1145 17.8314 38.139 18.04C38.2986 18.4942 39.0718 18.3469 39.0718 18.04C39.0718 17.9418 39.0718 18.0032 39.0473 17.9173C38.9614 17.3527 41.6125 17.0704 41.8212 17.9173ZM37.3044 16.1376C37.4149 16.2849 37.4517 16.3831 37.5621 16.6531L38.3845 16.3585C38.2495 16.1499 38.1758 15.9657 38.0163 15.8185C37.7831 15.573 37.3167 15.6344 37.2062 15.8553C37.1939 15.8921 37.1571 15.9535 37.3044 16.1376Z" fill="white"/>
</g>
</g>
<defs>
<filter id="filter0_i_16_15" x="-11" y="0" width="54" height="62" filterUnits="userSpaceOnUse" color-interpolation-filters="sRGB">
<feFlood flood-opacity="0" result="BackgroundImageFix"/>
<feBlend mode="normal" in="SourceGraphic" in2="BackgroundImageFix" result="shape"/>
<feColorMatrix in="SourceAlpha" type="matrix" values="0 0 0 0 0 0 0 0 0 0 0 0 0 0 0 0 0 0 127 0" result="hardAlpha"/>
<feOffset dx="-11" dy="19"/>
<feGaussianBlur stdDeviation="41.5"/>
<feComposite in2="hardAlpha" operator="arithmetic" k2="-1" k3="1"/>
<feColorMatrix type="matrix" values="0 0 0 0 0.954167 0 0 0 0 0.569322 0 0 0 0 0.34191 0 0 0 1 0"/>
<feBlend mode="normal" in2="shape" result="effect1_innerShadow_16_15"/>
</filter>
<filter id="filter1_i_16_15" x="-13.434" y="-1.62265" width="58.8679" height="66.8679" filterUnits="userSpaceOnUse" color-interpolation-filters="sRGB">
<feFlood flood-opacity="0" result="BackgroundImageFix"/>
<feBlend mode="normal" in="SourceGraphic" in2="BackgroundImageFix" result="shape"/>
<feColorMatrix in="SourceAlpha" type="matrix" values="0 0 0 0 0 0 0 0 0 0 0 0 0 0 0 0 0 0 127 0" result="hardAlpha"/>
<feOffset dx="-11" dy="19"/>
<feGaussianBlur stdDeviation="41.5"/>
<feComposite in2="hardAlpha" operator="arithmetic" k2="-1" k3="1"/>
<feColorMatrix type="matrix" values="0 0 0 0 0.954167 0 0 0 0 0.569322 0 0 0 0 0.34191 0 0 0 1 0"/>
<feBlend mode="normal" in2="shape" result="effect1_innerShadow_16_15"/>
</filter>
<clipPath id="clip0_16_15">
<rect width="43" height="43" fill="white"/>
</clipPath>
<clipPath id="clip1_16_15">
<rect x="-2.43396" y="-1.62265" width="47.8679" height="47.8679" rx="15" fill="white"/>
</clipPath>
</defs>
</svg>
