<svg width="53" height="53" viewBox="0 0 53 53" fill="none" xmlns="http://www.w3.org/2000/svg">
<g clip-path="url(#clip0_19_231)">
<g filter="url(#filter0_i_19_231)">
<path d="M44.8462 0H8.15385C3.6506 0 0 3.6506 0 8.15385V44.8462C0 49.3494 3.6506 53 8.15385 53H44.8462C49.3494 53 53 49.3494 53 44.8462V8.15385C53 3.6506 49.3494 0 44.8462 0Z" fill="#F994DF"/>
</g>
<g clip-path="url(#clip1_19_231)">
<g filter="url(#filter1_i_19_231)">
<path d="M46.9231 -2H6.07692C1.06388 -2 -3 2.06388 -3 7.07692V47.9231C-3 52.9361 1.06388 57 6.07692 57H46.9231C51.9361 57 56 52.9361 56 47.9231V7.07692C56 2.06388 51.9361 -2 46.9231 -2Z" fill="#F994DF"/>
</g>
<path fill-rule="evenodd" clip-rule="evenodd" d="M-2.24359 33.7411C-2.24359 33.1157 -1.48588 32.8042 -1.04594 33.2487C0.151711 34.459 2.547 36.8795 4.94231 37.2829C7.33763 37.6863 9.73288 36.0726 12.1282 38.0897C14.5235 40.1069 16.9188 45.7547 19.3141 47.3684C21.7094 48.982 24.1047 46.5615 26.5 46.5615C28.8953 46.5615 31.2906 48.982 33.6859 47.7718C36.0812 46.5615 38.4765 41.7205 40.8718 40.9136C43.2671 40.1069 45.6624 43.3342 48.0577 44.141C50.453 44.9479 52.8483 43.3342 54.046 42.5274C54.5563 42.1835 55.2436 42.5492 55.2436 43.1646V48.4259C55.2436 48.5948 55.2316 48.7634 55.2077 48.9305L55.1863 49.0805C54.7851 51.8885 52.6139 54.927 49.9199 55.8151C49.3395 56.0064 48.7181 56.1611 48.0577 56.2436C45.6624 56.2436 43.2671 56.2436 40.8718 56.2436C38.4765 56.2436 36.0812 56.2436 33.6859 56.2436C31.2906 56.2436 28.8953 56.2436 26.5 56.2436C24.1047 56.2436 21.7094 56.2436 19.3141 56.2436C16.9188 56.2436 14.5235 56.2436 12.1282 56.2436C10.0026 56.2436 7.87695 56.2436 5.75136 56.2436C5.21401 56.2436 4.37174 56.1005 3.85119 55.9673C0.640367 55.1453 -1.79568 52.2627 -2.20678 48.9739L-2.24359 48.6795V33.7411Z" fill="white"/>
<path d="M15.2749 21.2975H15.2598C16.4095 24.2626 11.3567 24.4592 11.3567 24.4592C11.3567 24.4592 10.2977 24.5198 9.34462 23.9751C8.28565 24.4139 7.15104 24.4592 7.15104 24.4592C7.15104 24.4592 4.24642 24.6257 3.73206 21.948C3.65642 21.6 3.55052 21.2823 3.38411 20.9798C2.86975 20.0267 2.00745 19.1946 2.37052 17.6364C2.47642 17.1977 3.03616 17.228 3.03616 17.228H5.42642C5.42642 17.228 5.92565 17.228 5.7895 17.7423C5.44155 19.0887 5.98616 19.9208 6.57616 20.6923C7.62001 22.069 6.78796 22.7195 7.03001 22.7195C7.27206 22.7195 7.9377 22.2203 7.49898 20.9041C7.37796 20.5562 7.10565 20.2839 6.92411 19.951C6.56104 19.3459 6.30386 18.65 6.51565 17.6818C6.62155 17.1977 7.15104 17.228 7.15104 17.228H9.64719C9.64719 17.228 10.1767 17.2128 10.0103 17.6969C9.9195 17.9844 9.88924 18.2416 9.88924 18.4987C9.88924 19.1795 10.1464 19.7241 10.449 20.2233C10.5549 20.3898 10.6608 20.541 10.7818 20.6923C11.8408 22.0992 10.9633 22.7195 11.2205 22.7195C11.4474 22.7195 12.1433 22.2203 11.7046 20.9041C11.5836 20.5562 11.3113 20.2839 11.1298 19.951C10.7818 19.3459 10.5095 18.6651 10.7213 17.7121C10.8272 17.228 11.4928 17.228 11.4928 17.228H13.7469C13.7469 17.228 14.3067 17.2431 14.1705 17.8028C13.8074 19.3913 14.7605 20.2385 15.2749 21.2975ZM23.1223 18.8013C23.3492 20.7377 25.452 21.4185 24.1207 24.0205L24.1056 24.0508C23.8635 24.4895 23.3643 24.4592 23.3643 24.4592H23.0164H20.8833C20.8833 24.4592 20.4143 24.429 20.49 24.081C20.2933 24.308 20.0512 24.4441 19.7638 24.4592H17.2979C17.2979 24.4592 15.8607 24.4139 16.2994 23.249C16.4961 22.7649 16.5869 22.3413 16.4659 21.7362C16.4507 21.6605 16.3751 21.4487 16.2843 21.2218C16.1633 20.9192 16.2389 20.4654 17.2071 20.178C18.9771 19.6939 20.0361 20.1931 20.49 20.5713C20.49 20.5562 20.5051 20.5562 20.5051 20.5562C20.2176 19.4821 19.3402 19.2551 17.9333 19.3459C17.4643 19.3762 16.7079 19.7241 16.1784 19.9057C15.4674 20.1628 15.2556 19.3913 15.2253 19.3005C15.0438 18.8467 15.0438 18.5139 15.1043 18.0146C15.2253 17.1977 15.891 17.228 15.891 17.228H22.4717C22.4717 17.228 23.2584 17.2582 23.1374 18.0449C23.1071 18.3172 23.092 18.5592 23.1223 18.8013ZM21.08 22.659C21.1253 22.3413 21.1253 22.069 21.0648 21.7967H19.8848C19.0074 21.7664 18.8712 22.6892 19.9302 22.659H21.08ZM32.2376 18.8013C32.4645 20.7377 34.5674 21.4185 33.2361 24.0205L33.2209 24.0508C32.9789 24.4895 32.4797 24.4592 32.4797 24.4592H32.1317H29.9986C29.9986 24.4592 29.5297 24.429 29.6053 24.081C29.4086 24.308 29.1666 24.4441 28.8792 24.4592H26.4133C26.4133 24.4592 24.9761 24.4139 25.4148 23.249C25.6115 22.7649 25.7022 22.3413 25.5812 21.7362C25.5661 21.6605 25.4904 21.4487 25.3997 21.2218C25.2786 20.9192 25.3543 20.4654 26.3225 20.178C28.0925 19.6939 29.1515 20.1931 29.6053 20.5713C29.6053 20.5562 29.6204 20.5562 29.6204 20.5562C29.333 19.4821 28.4556 19.2551 27.0486 19.3459C26.5797 19.3762 25.8233 19.7241 25.2938 19.9057C24.5827 20.1628 24.3709 19.3913 24.3407 19.3005C24.1592 18.8467 24.1591 18.5139 24.2197 18.0146C24.3407 17.1977 25.0063 17.228 25.0063 17.228H31.5871C31.5871 17.228 32.3738 17.2582 32.2527 18.0449C32.2225 18.3172 32.2074 18.5592 32.2376 18.8013ZM30.1953 22.659C30.2407 22.3413 30.2407 22.069 30.1802 21.7967H29.0002C28.1227 21.7664 27.9866 22.6892 29.0456 22.659H30.1953ZM42.5178 21.2975C43.2742 24.1416 38.5845 24.4592 38.5845 24.4592C38.5845 24.4592 35.2563 24.6257 34.7419 21.948C34.6663 21.6 34.5604 21.2823 34.394 20.9798C33.8796 20.0116 33.0173 19.1795 33.3955 17.6213C33.4863 17.1977 33.9099 17.2128 33.9099 17.2128H36.6178C36.6178 17.2128 36.9809 17.2128 36.8599 17.6516C36.4363 19.0433 36.9809 19.9057 37.586 20.6923C38.9173 22.4623 38.1306 22.7195 38.3727 22.7195C38.6148 22.7195 39.3863 22.2203 38.9476 20.9041C38.8417 20.5562 38.5694 20.2839 38.3727 19.951C38.0096 19.3308 37.7524 18.6198 37.9945 17.6062C38.0853 17.228 38.4635 17.228 38.4635 17.228H41.0353C41.0353 17.228 41.5799 17.2431 41.474 17.6364C40.9899 19.3459 42.0035 20.2082 42.5178 21.2975ZM51.547 22.0841C51.6075 22.3716 51.6378 22.5077 51.5773 22.8859C51.5168 23.2187 51.1991 24.4592 49.4291 24.4592H44.5578C44.3309 24.4592 43.166 24.4592 43.514 22.7195C43.8014 21.2975 42.7727 20.541 42.3188 19.4064C41.9104 18.4231 42.7727 17.2128 44.7242 17.2128H48.1734C49.8981 17.2128 50.1401 18.4382 50.1704 18.8013C50.2157 19.1492 50.3065 19.4216 50.367 19.5728C50.3973 19.6485 50.4729 19.7695 50.488 19.9057H50.5032C50.5183 20.7377 49.4896 21.01 48.7786 21.0705C48.7786 21.0705 47.0237 21.2369 46.948 21.7059C46.9178 21.9328 46.9783 21.9782 47.0086 22.2354C47.2052 22.7951 48.1583 22.6136 48.1583 22.2354C48.1583 22.1144 48.1583 22.19 48.1281 22.0841C48.0222 21.3882 51.2898 21.0403 51.547 22.0841ZM45.9798 19.8905C46.116 20.0721 46.1614 20.1931 46.2975 20.5259L47.3111 20.1628C47.1447 19.9057 47.054 19.6787 46.8573 19.4972C46.5698 19.1946 45.995 19.2703 45.8588 19.5426C45.8437 19.588 45.7983 19.6636 45.9798 19.8905Z" fill="white"/>
</g>
</g>
<defs>
<filter id="filter0_i_19_231" x="-11" y="0" width="64" height="72" filterUnits="userSpaceOnUse" color-interpolation-filters="sRGB">
<feFlood flood-opacity="0" result="BackgroundImageFix"/>
<feBlend mode="normal" in="SourceGraphic" in2="BackgroundImageFix" result="shape"/>
<feColorMatrix in="SourceAlpha" type="matrix" values="0 0 0 0 0 0 0 0 0 0 0 0 0 0 0 0 0 0 127 0" result="hardAlpha"/>
<feOffset dx="-11" dy="19"/>
<feGaussianBlur stdDeviation="41.5"/>
<feComposite in2="hardAlpha" operator="arithmetic" k2="-1" k3="1"/>
<feColorMatrix type="matrix" values="0 0 0 0 0.954167 0 0 0 0 0.569322 0 0 0 0 0.34191 0 0 0 1 0"/>
<feBlend mode="normal" in2="shape" result="effect1_innerShadow_19_231"/>
</filter>
<filter id="filter1_i_19_231" x="-14" y="-2" width="70" height="78" filterUnits="userSpaceOnUse" color-interpolation-filters="sRGB">
<feFlood flood-opacity="0" result="BackgroundImageFix"/>
<feBlend mode="normal" in="SourceGraphic" in2="BackgroundImageFix" result="shape"/>
<feColorMatrix in="SourceAlpha" type="matrix" values="0 0 0 0 0 0 0 0 0 0 0 0 0 0 0 0 0 0 127 0" result="hardAlpha"/>
<feOffset dx="-11" dy="19"/>
<feGaussianBlur stdDeviation="41.5"/>
<feComposite in2="hardAlpha" operator="arithmetic" k2="-1" k3="1"/>
<feColorMatrix type="matrix" values="0 0 0 0 0.954167 0 0 0 0 0.569322 0 0 0 0 0.34191 0 0 0 1 0"/>
<feBlend mode="normal" in2="shape" result="effect1_innerShadow_19_231"/>
</filter>
<clipPath id="clip0_19_231">
<rect width="53" height="53" fill="white"/>
</clipPath>
<clipPath id="clip1_19_231">
<rect x="-3" y="-2" width="59" height="59" rx="20" fill="white"/>
</clipPath>
</defs>
</svg>
